<svg width="100" height="100" viewBox="0 0 100 100" fill="none" xmlns="http://www.w3.org/2000/svg">
<g clip-path="url(#clip0_111_11)">
<path d="M50.2778 30.5555C39.4445 30.5555 30.8333 39.1667 30.8333 50C30.8333 60.8333 39.4445 69.4444 50.2778 69.4444C61.1111 69.4444 69.7222 60.8333 69.7222 50C69.7222 39.1667 61.1111 30.5555 50.2778 30.5555ZM50.2778 63.8889C42.5 63.8889 36.3889 57.7778 36.3889 50C36.3889 42.2222 42.5 36.1111 50.2778 36.1111C58.0556 36.1111 64.1667 42.2222 64.1667 50C64.1667 57.7778 58.0556 63.8889 50.2778 63.8889Z" fill="#E9E358"/>
<path d="M91.1111 40.8333L83.3333 38.3333L81.6666 34.1667L85.5555 26.9444C86.3889 25.2778 86.1111 23.0555 84.7222 21.6667L78.0555 15C76.6667 13.6111 74.4444 13.3333 72.7778 14.1667L65.5555 18.0555L61.3889 16.3889L58.8889 8.6111C58.3333 6.94443 56.6667 5.55554 54.7222 5.55554H45.2778C43.3333 5.55554 41.6667 6.94443 41.3889 8.88888L38.8889 16.6667C37.2222 16.9444 35.8333 17.5 34.4444 18.3333L27.2222 14.4444C25.5555 13.6111 23.3333 13.8889 21.9444 15.2778L15.2778 21.9444C13.8889 23.3333 13.6111 25.5555 14.4444 27.2222L18.0555 34.1667C17.5 35.5555 16.9444 37.2222 16.3889 38.6111L8.6111 41.1111C6.94443 41.6667 5.55554 43.3333 5.55554 45.2778V54.7222C5.55554 56.6667 6.94443 58.3333 8.88888 58.8889L16.6667 61.3889L18.3333 65.5555L14.4444 72.7778C13.6111 74.4444 13.8889 76.6667 15.2778 78.0555L21.9444 84.7222C23.3333 86.1111 25.5555 86.3889 27.2222 85.5555L34.4444 81.6666L38.6111 83.3333L41.1111 91.3889C41.6667 93.0555 43.3333 94.4444 45.2778 94.4444H54.7222C56.6667 94.4444 58.3333 93.0555 58.8889 91.3889L61.3889 83.3333L65.5555 81.6666L72.7778 85.5555C74.4444 86.3889 76.6667 86.1111 78.0555 84.7222L84.7222 78.0555C86.1111 76.6667 86.3889 74.4444 85.5555 72.7778L81.6666 65.5555L83.3333 61.3889L91.3889 58.8889C93.0555 58.3333 94.4444 56.6667 94.4444 54.7222V45.2778C94.4444 43.3333 93.0555 41.3889 91.1111 40.8333ZM88.8889 53.8889L78.8889 56.9444L78.6111 58.3333L76.1111 64.1667L75.2778 65.5555L80.2778 74.7222L74.7222 80.2778L65.5555 75.2778L64.1667 76.1111C62.2222 77.2222 60.2778 78.0555 58.3333 78.6111L56.9444 78.8889L53.8889 88.8889H46.1111L43.0555 78.8889L41.6667 78.6111L35.8333 76.1111L34.4444 75.2778L25.2778 80.2778L19.7222 74.7222L24.7222 65.5555L23.8889 64.1667C22.7778 62.2222 21.9444 60.2778 21.3889 58.3333L21.1111 56.9444L11.1111 53.8889V46.1111L20.5555 43.3333L21.1111 41.9444C21.6667 39.7222 22.5 37.7778 23.6111 35.8333L24.4444 34.4444L19.7222 25.2778L25.2778 19.7222L34.1667 24.7222L35.5555 23.8889C37.5 22.7778 39.4444 21.9444 41.6667 21.3889L43.0555 20.8333L46.1111 11.1111H53.8889L56.9444 20.8333L58.3333 21.3889C60.2778 21.9444 62.2222 22.7778 64.1667 23.8889L65.5555 24.7222L74.7222 19.7222L80.2778 25.2778L75.2778 34.4444L76.1111 35.8333C77.2222 37.7778 78.0555 39.7222 78.6111 41.6667L78.8889 43.0555L88.8889 46.1111V53.8889Z" fill="#E9E358"/>
</g>
<defs>
<clipPath id="clip0_111_11">
<rect width="100" height="100" fill="white"/>
</clipPath>
</defs>
</svg>
